<?xml version="1.0" encoding="UTF-8" standalone="no"?>
<!-- Created with Inkscape (http://www.inkscape.org/) -->

<svg
   xmlns:dc="http://purl.org/dc/elements/1.1/"
   xmlns:cc="http://creativecommons.org/ns#"
   xmlns:rdf="http://www.w3.org/1999/02/22-rdf-syntax-ns#"
   xmlns:svg="http://www.w3.org/2000/svg"
   xmlns="http://www.w3.org/2000/svg"
   xmlns:sodipodi="http://sodipodi.sourceforge.net/DTD/sodipodi-0.dtd"
   xmlns:inkscape="http://www.inkscape.org/namespaces/inkscape"
   width="210mm"
   height="297mm"
   viewBox="0 0 744.09448819 1052.3622047"
   id="svg2"
   version="1.1"
   inkscape:version="0.91 r13725"
   sodipodi:docname="logo-2.svg">
  <defs
     id="defs4" />
  <sodipodi:namedview
     id="base"
     pagecolor="#ffffff"
     bordercolor="#666666"
     borderopacity="1.0"
     inkscape:pageopacity="0.0"
     inkscape:pageshadow="2"
     inkscape:zoom="1.4"
     inkscape:cx="367.73291"
     inkscape:cy="621.62756"
     inkscape:document-units="px"
     inkscape:current-layer="text4136"
     showgrid="false"
     inkscape:snap-to-guides="false"
     inkscape:window-width="1861"
     inkscape:window-height="1056"
     inkscape:window-x="59"
     inkscape:window-y="24"
     inkscape:window-maximized="1" />
  <metadata
     id="metadata7">
    <rdf:RDF>
      <cc:Work
         rdf:about="">
        <dc:format>image/svg+xml</dc:format>
        <dc:type
           rdf:resource="http://purl.org/dc/dcmitype/StillImage" />
        <dc:title></dc:title>
      </cc:Work>
    </rdf:RDF>
  </metadata>
  <g
     inkscape:label="BGs"
     inkscape:groupmode="layer"
     id="layer1"
     style="display:inline">
    <rect
       style="opacity:0;fill:#ffff00;fill-opacity:1;stroke:#916f6f;stroke-width:0.219;stroke-linecap:butt;stroke-miterlimit:4;stroke-dasharray:none;stroke-opacity:1"
       id="rect4156"
       width="302.85718"
       height="119.2857"
       x="5.7142859"
       y="400.21936" />
    <rect
       style="opacity:0;fill:#000080;fill-opacity:1;stroke:#916f6f;stroke-width:0.219;stroke-linecap:butt;stroke-miterlimit:4;stroke-dasharray:none;stroke-opacity:1"
       id="rect4160"
       width="202.14285"
       height="37.857143"
       x="71.428574"
       y="277.36221"
       ry="0" />
    <rect
       style="opacity:0;fill:#008080;fill-opacity:1;stroke:#916f6f;stroke-width:0.219;stroke-linecap:butt;stroke-miterlimit:4;stroke-dasharray:none;stroke-opacity:1"
       id="rect4184"
       width="220.71428"
       height="75.714287"
       x="196.42857"
       y="203.79077" />
    <rect
       style="opacity:0;fill:#ff9955;fill-opacity:1;stroke:#916f6f;stroke-width:0.219;stroke-linecap:round;stroke-miterlimit:4;stroke-dasharray:none;stroke-opacity:1"
       id="rect4186"
       width="285"
       height="92.14286"
       x="352.14285"
       y="175.21935" />
    <rect
       style="display:inline;opacity:1;fill:#003380;fill-opacity:1;fill-rule:nonzero;stroke:#916f6f;stroke-width:0.22628802;stroke-linecap:round;stroke-miterlimit:4;stroke-dasharray:none;stroke-opacity:1"
       id="rect4196"
       width="263.56415"
       height="51.421284"
       x="5.0036345"
       y="338.08014" />
    <rect
       style="display:inline;opacity:1;fill:#0055d4;fill-opacity:1;fill-rule:nonzero;stroke:#916f6f;stroke-width:0.20510633;stroke-linecap:round;stroke-miterlimit:4;stroke-dasharray:none;stroke-opacity:1"
       id="rect4196-9"
       width="216.44247"
       height="51.442467"
       x="266.77878"
       y="338.06952" />
    <rect
       style="display:inline;opacity:1;fill:#5599ff;fill-opacity:1;fill-rule:nonzero;stroke:#916f6f;stroke-width:0.19963118;stroke-linecap:round;stroke-miterlimit:4;stroke-dasharray:none;stroke-opacity:1"
       id="rect4196-9-5"
       width="205.01938"
       height="51.447945"
       x="483.63315"
       y="338.06677" />
  </g>
  <g
     inkscape:groupmode="layer"
     id="layer2"
     inkscape:label="Text">
    <g
       style="font-style:normal;font-variant:normal;font-weight:normal;font-stretch:normal;font-size:40px;line-height:125%;font-family:'SauceCodePro Nerd Font';-inkscape-font-specification:'SauceCodePro Nerd Font';letter-spacing:0px;word-spacing:-5.19000006px;display:inline;fill:#0000ff;fill-opacity:1;stroke:none;stroke-width:0.5;stroke-linecap:butt;stroke-linejoin:miter;stroke-miterlimit:4;stroke-dasharray:none;stroke-opacity:1"
       id="text4136">
      <path
         d="m 4.2857108,338.19648 21.1200002,25.6 -21.1200002,25.68 0,-51.28 z"
         style="word-spacing:-5.19000006px;fill:#ffffff;stroke-width:0.5;stroke-miterlimit:4;stroke-dasharray:none"
         id="path4158" />
      <path
         d="m 51.613212,378.07648 0,-26.24 7.92,0 q 2.16,0 3.96,0.4 1.8,0.4 3.08,1.32 1.28,0.88 1.96,2.36 0.72,1.48 0.72,3.64 0,2.08 -0.72,3.6 -0.68,1.52 -2,2.52 -1.28,1 -3.08,1.52 -1.76,0.48 -3.92,0.48 l -4.6,0 0,10.4 -3.32,0 z m 3.32,-13.12 4.2,0 q 3.48,0 5.12,-1.28 1.64,-1.32 1.64,-4.12 0,-2.84 -1.68,-3.92 -1.68,-1.12 -5.08,-1.12 l -4.2,0 0,10.44 z"
         style="word-spacing:-5.19000006px;fill:#ffffff;stroke-width:0.5;stroke-miterlimit:4;stroke-dasharray:none"
         id="path4160" />
      <path
         d="m 83.517583,378.55648 q -1.92,0 -3.68,-0.68 -1.72,-0.68 -3.04,-1.96 -1.32,-1.32 -2.12,-3.2 -0.76,-1.92 -0.76,-4.32 0,-2.44 0.76,-4.32 0.8,-1.92 2.12,-3.24 1.32,-1.32 3.04,-2 1.76,-0.68 3.68,-0.68 1.92,0 3.64,0.68 1.76,0.68 3.08,2 1.32,1.32 2.08,3.24 0.8,1.88 0.8,4.32 0,2.4 -0.8,4.32 -0.76,1.88 -2.08,3.2 -1.32,1.28 -3.08,1.96 -1.72,0.68 -3.64,0.68 z m 0,-2.72 q 1.4,0 2.52,-0.52 1.16,-0.56 1.96,-1.52 0.84,-1 1.28,-2.36 0.44,-1.36 0.44,-3.04 0,-1.68 -0.44,-3.04 -0.44,-1.4 -1.28,-2.4 -0.8,-1 -1.96,-1.52 -1.12,-0.56 -2.52,-0.56 -1.4,0 -2.56,0.56 -1.12,0.52 -1.96,1.52 -0.8,1 -1.24,2.4 -0.44,1.36 -0.44,3.04 0,1.68 0.44,3.04 0.44,1.36 1.24,2.36 0.84,0.96 1.96,1.52 1.16,0.52 2.56,0.52 z"
         style="word-spacing:-5.19000006px;fill:#ffffff;stroke-width:0.5;stroke-miterlimit:4;stroke-dasharray:none"
         id="path4162" />
      <path
         d="m 100.06196,378.07648 -4.240002,-19.44 3.28,0 2.320002,11.28 q 0.28,1.4 0.48,2.68 0.2,1.28 0.4,2.68 l 0.16,0 q 0.2,-1.4 0.48,-2.68 0.32,-1.32 0.64,-2.68 l 2.4,-10.08 3.28,0 2.32,10.08 q 0.32,1.4 0.64,2.68 0.36,1.28 0.56,2.68 l 0.16,0 q 0.24,-1.4 0.4,-2.68 0.2,-1.28 0.48,-2.68 l 2.32,-11.28 3.04,0 -4.16,19.44 -4.24,0 -2.24,-9.28 q -0.48,-2.04 -0.96,-5.76 l -0.16,0 q -0.48,3.72 -0.96,5.76 l -2.16,9.28 -4.24,0 z"
         style="word-spacing:-5.19000006px;fill:#ffffff;stroke-width:0.5;stroke-miterlimit:4;stroke-dasharray:none"
         id="path4164" />
      <path
         d="m 132.68633,378.55648 q -2.2,0 -4.12,-0.68 -1.88,-0.68 -3.32,-2 -1.4,-1.32 -2.24,-3.2 -0.8,-1.92 -0.8,-4.36 0,-2.36 0.8,-4.24 0.84,-1.88 2.2,-3.2 1.4,-1.32 3.16,-2 1.8,-0.72 3.76,-0.72 2.08,0 3.72,0.68 1.68,0.64 2.8,1.84 1.16,1.2 1.76,2.88 0.6,1.68 0.6,3.72 0,0.56 -0.04,1.08 -0.04,0.52 -0.12,0.92 l -15.32,0 q 0.32,3.32 2.4,5 2.12,1.64 5.16,1.64 1.76,0 3.16,-0.48 1.44,-0.52 2.76,-1.36 l 1.2,2.16 q -1.44,0.96 -3.32,1.64 -1.84,0.68 -4.2,0.68 z m -0.48,-17.8 q -1.2,0 -2.32,0.4 -1.08,0.4 -1.96,1.16 -0.88,0.72 -1.48,1.84 -0.6,1.12 -0.84,2.56 l 12.4,0 q -0.2,-3 -1.76,-4.48 -1.52,-1.48 -4.04,-1.48 z"
         style="word-spacing:-5.19000006px;fill:#ffffff;stroke-width:0.5;stroke-miterlimit:4;stroke-dasharray:none"
         id="path4166" />
      <path
         d="m 149.31071,378.07648 0,-19.44 2.72,0 0.28,4.6 0.12,0 q 1.52,-2.36 3.72,-3.72 2.24,-1.36 4.96,-1.36 1.08,0 2,0.2 0.92,0.16 1.84,0.6 l -0.76,2.84 q -1.04,-0.36 -1.76,-0.52 -0.68,-0.16 -1.84,-0.16 -2.2,0 -4.24,1.28 -2,1.24 -3.76,4.28 l 0,11.4 -3.28,0 z"
         style="word-spacing:-5.19000006px;fill:#ffffff;stroke-width:0.5;stroke-miterlimit:4;stroke-dasharray:none"
         id="path4168" />
      <path
         d="m 183.73508,378.55648 q -3.12,0 -4.76,-1.76 -1.64,-1.76 -1.64,-5.24 l 0,-19.28 -6.64,0 0,-2.68 9.92,0 0,22.2 q 0,2.16 1.04,3.12 1.04,0.92 2.8,0.92 1.72,0 3.64,-0.88 l 0.84,2.44 q -1.36,0.56 -2.48,0.84 -1.12,0.32 -2.72,0.32 z"
         style="word-spacing:-5.19000006px;fill:#ffffff;stroke-width:0.5;stroke-miterlimit:4;stroke-dasharray:none"
         id="path4170" />
      <path
         d="m 204.07946,378.07648 0,-16.76 -9.04,0 0,-2.68 12.32,0 0,19.44 -3.28,0 z m 1.28,-23.52 q -1.12,0 -1.88,-0.68 -0.76,-0.72 -0.76,-1.88 0,-1.16 0.76,-1.84 0.76,-0.72 1.88,-0.72 1.12,0 1.88,0.72 0.76,0.68 0.76,1.84 0,1.16 -0.76,1.88 -0.76,0.68 -1.88,0.68 z"
         style="word-spacing:-5.19000006px;fill:#ffffff;stroke-width:0.5;stroke-miterlimit:4;stroke-dasharray:none"
         id="path4172" />
      <path
         d="m 219.14383,378.07648 0,-19.44 2.72,0 0.28,3.32 0.16,0 q 1.52,-1.64 3.28,-2.72 1.76,-1.08 4.04,-1.08 3.48,0 5.08,2 1.64,1.96 1.64,5.84 l 0,12.08 -3.28,0 0,-11.64 q 0,-2.76 -1.04,-4.08 -1.04,-1.36 -3.44,-1.36 -0.88,0 -1.64,0.24 -0.72,0.2 -1.44,0.64 -0.72,0.44 -1.48,1.12 -0.76,0.64 -1.6,1.52 l 0,13.56 -3.28,0 z"
         style="word-spacing:-5.19000006px;fill:#ffffff;stroke-width:0.5;stroke-miterlimit:4;stroke-dasharray:none"
         id="path4174" />
      <path
         d="m 252.60821,378.55648 q -2.2,0 -4.12,-0.68 -1.88,-0.68 -3.32,-2 -1.4,-1.32 -2.24,-3.2 -0.8,-1.92 -0.8,-4.36 0,-2.36 0.8,-4.24 0.84,-1.88 2.2,-3.2 1.4,-1.32 3.16,-2 1.8,-0.72 3.76,-0.72 2.08,0 3.72,0.68 1.68,0.64 2.8,1.84 1.16,1.2 1.76,2.88 0.6,1.68 0.6,3.72 0,0.56 -0.04,1.08 -0.04,0.52 -0.12,0.92 l -15.32,0 q 0.32,3.32 2.4,5 2.12,1.64 5.16,1.64 1.76,0 3.16,-0.48 1.44,-0.52 2.76,-1.36 l 1.2,2.16 q -1.44,0.96 -3.32,1.64 -1.84,0.68 -4.2,0.68 z m -0.48,-17.8 q -1.2,0 -2.32,0.4 -1.08,0.4 -1.96,1.16 -0.88,0.72 -1.48,1.84 -0.6,1.12 -0.84,2.56 l 12.4,0 q -0.2,-3 -1.76,-4.48 -1.52,-1.48 -4.04,-1.48 z"
         style="word-spacing:-5.19000006px;fill:#ffffff;stroke-width:0.5;stroke-miterlimit:4;stroke-dasharray:none"
         id="path4176" />
      <path
         d="m 263.39258,338.43648 q 5.8,0 11.76,3.64 11.84,7.24 11.84,21.8 0,14.44 -11.84,21.64 -6,3.72 -11.76,3.72 l 0,-50.8 z"
         style="fill:#003380;fill-opacity:1"
         id="path4178" />
      <path
         d="m 310.96571,378.07648 0,-26.24 16.24,0 0,2.8 -12.88,0 0,8.24 10.88,0 0,2.84 -10.88,0 0,9.52 13.28,0 0,2.84 -16.64,0 z"
         style="fill:#dbe3de"
         id="path4180" />
      <path
         d="m 332.95008,378.07648 7.4,-10.08 -6.84,-9.36 3.64,0 3.08,4.28 q 0.52,0.8 1.08,1.64 0.6,0.84 1.2,1.64 l 0.16,0 q 0.56,-0.8 1.12,-1.68 0.56,-0.88 1.08,-1.68 l 2.92,-4.2 3.48,0 -6.92,9.64 7.44,9.8 -3.6,0 -3.4,-4.48 q -0.6,-0.84 -1.28,-1.76 -0.64,-0.92 -1.28,-1.76 l -0.16,0 q -0.6,0.88 -1.2,1.76 -0.6,0.84 -1.2,1.76 l -3.2,4.48 -3.52,0 z"
         style="fill:#dbe3de"
         id="path4182" />
      <path
         d="m 370.13446,378.55648 q -2.12,0 -3.56,-0.56 -1.44,-0.6 -2.32,-1.64 -0.88,-1.08 -1.28,-2.56 -0.36,-1.48 -0.36,-3.28 l 0,-9.2 -5.48,0 0,-2.48 5.6,-0.2 0.44,-6.24 2.72,0 0,6.24 9.56,0 0,2.68 -9.56,0 0,9.24 q 0,1.32 0.24,2.32 0.24,0.96 0.8,1.64 0.56,0.68 1.52,1.04 0.96,0.32 2.36,0.32 1.4,0 2.52,-0.24 1.12,-0.24 2.16,-0.64 l 0.72,2.4 q -1.32,0.48 -2.8,0.8 -1.44,0.36 -3.28,0.36 z"
         style="fill:#dbe3de"
         id="path4184" />
      <path
         d="m 384.19883,378.07648 0,-19.44 2.72,0 0.28,4.6 0.12,0 q 1.52,-2.36 3.72,-3.72 2.24,-1.36 4.96,-1.36 1.08,0 2,0.2 0.92,0.16 1.84,0.6 l -0.76,2.84 q -1.04,-0.36 -1.76,-0.52 -0.68,-0.16 -1.84,-0.16 -2.2,0 -4.24,1.28 -2,1.24 -3.76,4.28 l 0,11.4 -3.28,0 z"
         style="fill:#dbe3de"
         id="path4186" />
      <path
         d="m 412.18321,378.55648 q -1.36,0 -2.56,-0.4 -1.2,-0.36 -2.12,-1.04 -0.88,-0.72 -1.4,-1.72 -0.52,-1.04 -0.52,-2.36 0,-1.64 0.76,-2.84 0.8,-1.24 2.48,-2.12 1.72,-0.88 4.4,-1.44 2.68,-0.56 6.44,-0.88 -0.04,-1 -0.32,-1.88 -0.28,-0.88 -0.88,-1.52 -0.6,-0.68 -1.6,-1.08 -0.96,-0.4 -2.36,-0.4 -1.92,0 -3.68,0.76 -1.76,0.72 -3.12,1.56 l -1.28,-2.24 q 0.72,-0.48 1.68,-0.96 1,-0.52 2.08,-0.92 1.12,-0.4 2.36,-0.64 1.24,-0.28 2.52,-0.28 4,0 5.92,2.2 1.96,2.16 1.96,5.8 l 0,11.92 -2.68,0 -0.28,-2.64 -0.12,0 q -1.64,1.28 -3.64,2.2 -1.96,0.92 -4.04,0.92 z m 0.88,-2.64 q 1.68,0 3.28,-0.72 1.64,-0.76 3.32,-2.16 l 0,-5.12 q -3.12,0.24 -5.24,0.68 -2.08,0.44 -3.36,1.08 -1.24,0.6 -1.76,1.4 -0.52,0.76 -0.52,1.72 0,0.84 0.36,1.44 0.36,0.56 0.92,0.96 0.6,0.36 1.36,0.56 0.8,0.16 1.64,0.16 z"
         style="fill:#dbe3de"
         id="path4188" />
      <path
         d="m 458.32195,339.59648 0,4.72 -4.56,0 0,-4.72 4.56,0 z m 0.44,-0.88 -5.44,0 q -0.44,0 -0.44,0.44 l 0,5.6 q 0,0.48 0.44,0.48 l 5.44,0 q 0.44,0 0.44,-0.48 l 0,-5.6 q 0,-0.44 -0.44,-0.44 z m -0.44,0.88 0,4.72 -4.56,0 0,-4.72 4.56,0 z m 0.44,-0.88 -5.44,0 q -0.44,0 -0.44,0.44 l 0,5.6 q 0,0.48 0.44,0.48 l 5.44,0 q 0.44,0 0.44,-0.48 l 0,-5.6 q 0,-0.44 -0.44,-0.44 z m -0.44,0.88 0,4.72 -4.56,0 0,-4.72 4.56,0 z m 0.44,-0.88 -5.44,0 q -0.44,0 -0.44,0.44 l 0,5.6 q 0,0.48 0.44,0.48 l 5.44,0 q 0.44,0 0.44,-0.48 l 0,-5.6 q 0,-0.44 -0.44,-0.44 z m 7.88,0.68 0,5.12 -4.92,0 0,-5.12 4.92,0 z m 0.24,-0.48 -5.4,0 q -0.24,0 -0.24,0.24 l 0,5.6 q 0,0.24 0.24,0.24 l 5.4,0 q 0.28,0 0.28,-0.24 l 0,-5.6 q 0,-0.24 -0.28,-0.24 z m -0.24,0.48 0,5.12 -4.92,0 0,-5.12 4.92,0 z m 0.24,-0.48 -5.4,0 q -0.24,0 -0.24,0.24 l 0,5.6 q 0,0.24 0.24,0.24 l 5.4,0 q 0.28,0 0.28,-0.24 l 0,-5.6 q 0,-0.24 -0.28,-0.24 z m -0.24,0.48 0,5.12 -4.92,0 0,-5.12 4.92,0 z m 0.24,-0.48 -5.4,0 q -0.24,0 -0.24,0.24 l 0,5.6 q 0,0.24 0.24,0.24 l 5.4,0 q 0.28,0 0.28,-0.24 l 0,-5.6 q 0,-0.24 -0.28,-0.24 z m 7.92,0.24 -5.4,0 0,5.6 5.4,0 0,-5.6 z m 0,0 -5.4,0 0,5.6 5.4,0 0,-5.6 z m 0,0 -5.4,0 0,5.6 5.4,0 0,-5.6 z m 8.28,0 -5.44,0 0,5.6 5.44,0 0,-5.6 z m 0,0 -5.44,0 0,5.6 5.44,0 0,-5.6 z m 0,0 -5.44,0 0,5.6 5.44,0 0,-5.6 z m -32.52,15.76 0,4.4 -4.24,0 0,-4.4 4.24,0 z m 0.56,-1.28 -5.4,0 q -0.24,0 -0.44,0.24 -0.16,0.2 -0.16,0.4 l 0,5.6 q 0,0.28 0.2,0.48 0.2,0.16 0.4,0.16 l 5.4,0 q 0.24,0 0.4,-0.2 0.2,-0.2 0.2,-0.44 l 0,-5.6 q 0,-0.24 -0.2,-0.44 -0.2,-0.2 -0.4,-0.2 z m -0.56,29.72 0,4.4 -4.24,0 0,-4.4 4.24,0 z m 0.56,-1.2 -5.4,0 q -0.24,0 -0.44,0.16 -0.16,0.2 -0.16,0.44 l 0,5.64 q 0,0.24 0.2,0.4 0.2,0.16 0.4,0.16 l 5.4,0 q 0.24,0 0.4,-0.2 0.2,-0.16 0.2,-0.36 l 0,-5.64 q 0,-0.28 -0.2,-0.44 -0.2,-0.16 -0.4,-0.16 z m 7.28,-35 0,5.16 -4.92,0 0,-5.16 4.92,0 z m 0.24,-0.48 -5.44,0 q -0.24,0 -0.24,0.24 l 0,5.64 q 0,0.28 0.24,0.28 l 5.44,0 q 0.24,0 0.24,-0.28 l 0,-5.64 q 0,-0.24 -0.24,-0.24 z m -0.72,22.4 0,4.12 -3.96,0 0,-4.12 3.96,0 z m 0.72,-1.52 -5.44,0 q -0.32,0 -0.52,0.24 -0.2,0.24 -0.2,0.52 l 0,5.64 q 0,0.36 0.2,0.56 0.24,0.2 0.52,0.2 l 5.44,0 q 0.32,0 0.52,-0.2 0.2,-0.24 0.2,-0.56 l 0,-5.64 q 0,-0.32 -0.24,-0.52 -0.2,-0.24 -0.48,-0.24 z m 8.24,-20.64 -5.4,0 0,5.64 5.4,0 0,-5.64 z m -0.24,7.6 0,5.12 -4.92,0 0,-5.12 4.92,0 z m 0.24,-0.48 -5.4,0 q -0.24,0 -0.24,0.24 l 0,5.6 q 0,0.28 0.24,0.28 l 5.4,0 q 0.28,0 0.28,-0.28 l 0,-5.6 q 0,-0.24 -0.28,-0.24 z m 0,7.2 -5.4,0 0,5.6 5.4,0 0,-5.6 z m -0.48,14.72 0,4.64 -4.44,0 0,-4.64 4.44,0 z m 0.48,-1.04 -5.4,0 q -0.2,0 -0.36,0.2 -0.12,0.2 -0.12,0.36 l 0,5.6 q 0,0.2 0.16,0.36 0.16,0.16 0.32,0.16 l 5.4,0 q 0.2,0 0.36,-0.2 0.16,-0.16 0.16,-0.32 l 0,-5.6 q 0,-0.2 -0.2,-0.36 -0.16,-0.2 -0.32,-0.2 z m 7.92,-28 -5.4,0 0,5.64 5.4,0 0,-5.64 z m 0,7.36 -5.4,0 0,5.6 5.4,0 0,-5.6 z m 0,14.04 -5.4,0 0,5.64 5.4,0 0,-5.64 z m 0,7.16 -5.4,0 0,5.6 5.4,0 0,-5.6 z m 0,7.28 -5.4,0 0,5.64 5.4,0 0,-5.64 z m 8.28,-35.84 -5.44,0 0,5.64 5.44,0 0,-5.64 z m 0,7.36 -5.44,0 0,5.6 5.44,0 0,-5.6 z m 0,6.96 -5.44,0 0,5.6 5.44,0 0,-5.6 z m 0,7.08 -5.44,0 0,5.64 5.44,0 0,-5.64 z m 0,7.16 -5.44,0 0,5.6 5.44,0 0,-5.6 z m 0,7.28 -5.44,0 0,5.64 5.44,0 0,-5.64 z"
         style="fill:#5599ff;fill-opacity:1;stroke-width:0.5;stroke-miterlimit:4;stroke-dasharray:none"
         id="path4190" />
      <path
         d="m 514.08508,378.55648 q -2.88,0 -5.32,-1.04 -2.4,-1.04 -4.2,-2.84 l 2,-2.32 q 1.48,1.48 3.44,2.4 1.96,0.88 4.24,0.88 2.72,0 4.2,-1.16 1.52,-1.16 1.52,-3 0,-1.04 -0.36,-1.76 -0.36,-0.72 -1,-1.24 -0.64,-0.52 -1.52,-0.92 -0.84,-0.4 -1.84,-0.84 l -3.76,-1.64 q -1,-0.4 -2,-0.96 -1,-0.56 -1.84,-1.36 -0.8,-0.8 -1.32,-1.88 -0.52,-1.12 -0.52,-2.56 0,-1.48 0.64,-2.76 0.64,-1.28 1.76,-2.2 1.16,-0.96 2.72,-1.48 1.6,-0.52 3.48,-0.52 2.48,0 4.56,0.92 2.08,0.88 3.52,2.32 l -1.76,2.16 q -1.28,-1.16 -2.84,-1.8 -1.56,-0.68 -3.6,-0.68 -2.28,0 -3.68,1.04 -1.4,1 -1.4,2.8 0,0.96 0.4,1.64 0.44,0.64 1.08,1.16 0.68,0.48 1.52,0.84 0.84,0.36 1.68,0.72 l 3.68,1.6 q 1.2,0.48 2.24,1.12 1.08,0.6 1.84,1.44 0.8,0.8 1.24,1.92 0.48,1.08 0.48,2.52 0,1.56 -0.64,2.92 -0.64,1.36 -1.84,2.4 -1.2,1 -2.92,1.6 -1.72,0.56 -3.88,0.56 z"
         style="fill:#dbe3de;fill-opacity:1"
         id="path4192" />
      <path
         d="m 531.10945,386.43648 q -1.44,0 -2.56,-0.4 l 0.68,-2.6 q 0.4,0.12 0.84,0.2 0.48,0.08 0.92,0.08 2.04,0 3.32,-1.2 1.28,-1.16 2,-2.96 l 0.6,-1.44 -9.08,-19.48 3.32,0 4.76,10.76 q 0.56,1.28 1.16,2.76 0.64,1.48 1.24,2.88 l 0.16,0 q 0.52,-1.4 1.04,-2.84 0.56,-1.48 1.04,-2.8 l 4.24,-10.76 3.12,0 -8.56,21.04 q -0.56,1.44 -1.28,2.68 -0.72,1.24 -1.72,2.12 -1,0.92 -2.32,1.44 -1.28,0.52 -2.92,0.52 z"
         style="fill:#dbe3de;fill-opacity:1"
         id="path4194" />
      <path
         d="m 552.17383,378.07648 0,-19.44 2.64,0 0.28,2.56 0.08,0 q 0.76,-1.36 1.76,-2.2 1,-0.84 2.68,-0.84 2.84,0 3.68,3.36 0.84,-1.56 1.84,-2.44 1.04,-0.92 2.72,-0.92 2.04,0 3.16,1.56 1.16,1.52 1.16,4.44 l 0,13.92 -3.28,0 0,-13.68 q 0,-3.4 -2.08,-3.4 -1.04,0 -1.68,0.76 -0.64,0.72 -1.44,2.24 l 0,14.08 -3.04,0 0,-13.68 q 0,-1.68 -0.48,-2.52 -0.44,-0.88 -1.52,-0.88 -1.04,0 -1.76,0.76 -0.72,0.72 -1.44,2.24 l 0,14.08 -3.28,0 z"
         style="fill:#dbe3de;fill-opacity:1"
         id="path4196" />
      <path
         d="m 586.6382,378.55648 q -1.4,0 -3.04,-0.68 -1.6,-0.72 -3,-1.96 l -0.12,0 -0.28,2.16 -2.64,0 0,-28.48 3.28,0 0,7.76 -0.12,3.76 0.12,0 q 1.32,-1.36 3.04,-2.16 1.76,-0.8 3.48,-0.8 1.96,0 3.48,0.72 1.52,0.68 2.52,2 1.04,1.28 1.56,3.12 0.52,1.8 0.52,4.04 0,2.48 -0.72,4.44 -0.72,1.96 -1.96,3.32 -1.2,1.36 -2.8,2.08 -1.6,0.68 -3.32,0.68 z m -0.52,-2.76 q 1.28,0 2.36,-0.52 1.08,-0.56 1.88,-1.52 0.8,-1 1.24,-2.44 0.44,-1.44 0.44,-3.24 0,-1.6 -0.32,-2.92 -0.32,-1.32 -1,-2.24 -0.64,-0.96 -1.68,-1.48 -1.04,-0.52 -2.48,-0.52 -1.28,0 -2.76,0.72 -1.44,0.68 -2.96,2.2 l 0,9.68 q 1.4,1.24 2.8,1.76 1.44,0.52 2.48,0.52 z"
         style="fill:#dbe3de;fill-opacity:1"
         id="path4198" />
      <path
         d="m 609.82258,378.55648 q -1.92,0 -3.68,-0.68 -1.72,-0.68 -3.04,-1.96 -1.32,-1.32 -2.12,-3.2 -0.76,-1.92 -0.76,-4.32 0,-2.44 0.76,-4.32 0.8,-1.92 2.12,-3.24 1.32,-1.32 3.04,-2 1.76,-0.68 3.68,-0.68 1.92,0 3.64,0.68 1.76,0.68 3.08,2 1.32,1.32 2.08,3.24 0.8,1.88 0.8,4.32 0,2.4 -0.8,4.32 -0.76,1.88 -2.08,3.2 -1.32,1.28 -3.08,1.96 -1.72,0.68 -3.64,0.68 z m 0,-2.72 q 1.4,0 2.52,-0.52 1.16,-0.56 1.96,-1.52 0.84,-1 1.28,-2.36 0.44,-1.36 0.44,-3.04 0,-1.68 -0.44,-3.04 -0.44,-1.4 -1.28,-2.4 -0.8,-1 -1.96,-1.52 -1.12,-0.56 -2.52,-0.56 -1.4,0 -2.56,0.56 -1.12,0.52 -1.96,1.52 -0.8,1 -1.24,2.4 -0.44,1.36 -0.44,3.04 0,1.68 0.44,3.04 0.44,1.36 1.24,2.36 0.84,0.96 1.96,1.52 1.16,0.52 2.56,0.52 z"
         style="fill:#dbe3de;fill-opacity:1"
         id="path4200" />
      <path
         d="m 638.08695,378.55648 q -3.12,0 -4.76,-1.76 -1.64,-1.76 -1.64,-5.24 l 0,-19.28 -6.64,0 0,-2.68 9.92,0 0,22.2 q 0,2.16 1.04,3.12 1.04,0.92 2.8,0.92 1.72,0 3.64,-0.88 l 0.84,2.44 q -1.36,0.56 -2.48,0.84 -1.12,0.32 -2.72,0.32 z"
         style="fill:#dbe3de;fill-opacity:1"
         id="path4202" />
      <path
         d="m 658.19133,378.55648 q -2.88,0 -5.32,-0.88 -2.44,-0.92 -4.24,-2.16 l 1.52,-2.16 q 1.68,1.2 3.68,1.92 2.04,0.72 4.76,0.72 2.48,0 3.68,-0.88 1.24,-0.92 1.24,-2.16 0,-0.56 -0.2,-1.04 -0.2,-0.48 -0.88,-0.92 -0.64,-0.44 -1.84,-0.84 -1.2,-0.4 -3.16,-0.8 -3.8,-0.8 -5.72,-2.12 -1.88,-1.36 -1.88,-3.56 0,-1.16 0.52,-2.16 0.52,-1.04 1.52,-1.76 1.04,-0.76 2.52,-1.16 1.52,-0.44 3.52,-0.44 2.24,0 4.32,0.76 2.08,0.72 3.52,1.72 l -1.6,2.12 q -1.36,-0.92 -3,-1.48 -1.64,-0.56 -3.52,-0.56 -2.48,0 -3.48,0.84 -1,0.84 -1,1.96 0,1.28 1.32,1.96 1.32,0.64 4.32,1.28 2.44,0.52 4,1.12 1.56,0.56 2.44,1.28 0.92,0.72 1.24,1.6 0.36,0.88 0.36,2 0,1.2 -0.56,2.24 -0.56,1.04 -1.68,1.84 -1.08,0.8 -2.72,1.24 -1.6,0.48 -3.68,0.48 z"
         style="fill:#dbe3de;fill-opacity:1"
         id="path4204" />
      <path
         d="m 687.85578,338.19648 0,51.28001 49.88,-51.28001 -49.88,0 z"
         style="fill:#5599ff;fill-opacity:1;stroke-width:0.5;stroke-miterlimit:4;stroke-dasharray:none"
         id="path4206"
         inkscape:connector-curvature="0" />
    </g>
  </g>
</svg>
