<svg xmlns="http://www.w3.org/2000/svg" width="782.347" height="55.091" viewBox="0 0 733.45 51.648"><g stroke="#916f6f" stroke-linecap="round"><path fill="#003380" stroke-width=".226" d="M.718.113h263.564v51.421H.718z"/><path fill="#0055d4" stroke-width=".205" d="M262.493.103h216.442v51.442H262.493z"/><path fill="#59f" stroke-width=".2" d="M479.347.1h205.02v51.448h-205.02z"/></g><g style="line-height:125%;-inkscape-font-specification:'SauceCodePro Nerd Font'" font-weight="400" font-size="40" font-family="SauceCodePro Nerd Font" letter-spacing="0" word-spacing="-5.19" fill="#00f" stroke-width=".5"><path d="M0 .23l21.12 25.6L0 51.51V.23zM47.328 40.11V13.87h7.92q2.16 0 3.96.4 1.8.4 3.08 1.32 1.28.88 1.96 2.36.72 1.48.72 3.64 0 2.08-.72 3.6-.68 1.52-2 2.52-1.28 1-3.08 1.52-1.76.48-3.92.48h-4.6v10.4h-3.32zm3.32-13.12h4.2q3.48 0 5.12-1.28 1.64-1.32 1.64-4.12 0-2.84-1.68-3.92-1.68-1.12-5.08-1.12h-4.2v10.44zM79.232 40.59q-1.92 0-3.68-.68-1.72-.68-3.04-1.96-1.32-1.32-2.12-3.2-.76-1.92-.76-4.32 0-2.44.76-4.32.8-1.92 2.12-3.24 1.32-1.32 3.04-2 1.76-.68 3.68-.68 1.92 0 3.64.68 1.76.68 3.08 2 1.32 1.32 2.08 3.24.8 1.88.8 4.32 0 2.4-.8 4.32-.76 1.88-2.08 3.2-1.32 1.28-3.08 1.96-1.72.68-3.64.68zm0-2.72q1.4 0 2.52-.52 1.16-.56 1.96-1.52.84-1 1.28-2.36.44-1.36.44-3.04t-.44-3.04q-.44-1.4-1.28-2.4-.8-1-1.96-1.52-1.12-.56-2.52-.56t-2.56.56q-1.12.52-1.96 1.52-.8 1-1.24 2.4-.44 1.36-.44 3.04t.44 3.04q.44 1.36 1.24 2.36.84.96 1.96 1.52 1.16.52 2.56.52zM95.776 40.11l-4.24-19.44h3.28l2.32 11.28q.28 1.4.48 2.68.2 1.28.4 2.68h.16q.2-1.4.48-2.68.32-1.32.64-2.68l2.4-10.08h3.28l2.32 10.08q.32 1.4.64 2.68.36 1.28.56 2.68h.16q.24-1.4.4-2.68.2-1.28.48-2.68l2.32-11.28h3.04l-4.16 19.44h-4.24l-2.24-9.28q-.48-2.04-.96-5.76h-.16q-.48 3.72-.96 5.76l-2.16 9.28h-4.24zM128.4 40.59q-2.2 0-4.12-.68-1.88-.68-3.32-2-1.4-1.32-2.24-3.2-.8-1.92-.8-4.36 0-2.36.8-4.24.84-1.88 2.2-3.2 1.4-1.32 3.16-2 1.8-.72 3.76-.72 2.08 0 3.72.68 1.68.64 2.8 1.84 1.16 1.2 1.76 2.88.6 1.68.6 3.72 0 .56-.04 1.08t-.12.92h-15.32q.32 3.32 2.4 5 2.12 1.64 5.16 1.64 1.76 0 3.16-.48 1.44-.52 2.76-1.36l1.2 2.16q-1.44.96-3.32 1.64-1.84.68-4.2.68zm-.48-17.8q-1.2 0-2.32.4-1.08.4-1.96 1.16-.88.72-1.48 1.84t-.84 2.56h12.4q-.2-3-1.76-4.48-1.52-1.48-4.04-1.48zM145.025 40.11V20.67h2.72l.28 4.6h.12q1.52-2.36 3.72-3.72 2.24-1.36 4.96-1.36 1.08 0 2 .2.92.16 1.84.6l-.76 2.84q-1.04-.36-1.76-.52-.68-.16-1.84-.16-2.2 0-4.24 1.28-2 1.24-3.76 4.28v11.4h-3.28zM179.45 40.59q-3.12 0-4.76-1.76-1.64-1.76-1.64-5.24V14.31h-6.64v-2.68h9.92v22.2q0 2.16 1.04 3.12 1.04.92 2.8.92 1.72 0 3.64-.88l.84 2.44q-1.36.56-2.48.84-1.12.32-2.72.32zM199.794 40.11V23.35h-9.04v-2.68h12.32v19.44h-3.28zm1.28-23.52q-1.12 0-1.88-.68-.76-.72-.76-1.88t.76-1.84q.76-.72 1.88-.72 1.12 0 1.88.72.76.68.76 1.84 0 1.16-.76 1.88-.76.68-1.88.68zM214.858 40.11V20.67h2.72l.28 3.32h.16q1.52-1.64 3.28-2.72 1.76-1.08 4.04-1.08 3.48 0 5.08 2 1.64 1.96 1.64 5.84v12.08h-3.28V28.47q0-2.76-1.04-4.08-1.04-1.36-3.44-1.36-.88 0-1.64.24-.72.2-1.44.64t-1.48 1.12q-.76.64-1.6 1.52v13.56h-3.28zM248.322 40.59q-2.2 0-4.12-.68-1.88-.68-3.32-2-1.4-1.32-2.24-3.2-.8-1.92-.8-4.36 0-2.36.8-4.24.84-1.88 2.2-3.2 1.4-1.32 3.16-2 1.8-.72 3.76-.72 2.08 0 3.72.68 1.68.64 2.8 1.84 1.16 1.2 1.76 2.88.6 1.68.6 3.72 0 .56-.04 1.08t-.12.92h-15.32q.32 3.32 2.4 5 2.12 1.64 5.16 1.64 1.76 0 3.16-.48 1.44-.52 2.76-1.36l1.2 2.16q-1.44.96-3.32 1.64-1.84.68-4.2.68zm-.48-17.8q-1.2 0-2.32.4-1.08.4-1.96 1.16-.88.72-1.48 1.84t-.84 2.56h12.4q-.2-3-1.76-4.48-1.52-1.48-4.04-1.48z" fill="#fff"/><path d="M259.107.47q5.8 0 11.76 3.64 11.84 7.24 11.84 21.8 0 14.44-11.84 21.64-6 3.72-11.76 3.72V.47z" fill="#003380"/><path d="M306.68 40.11V13.87h16.24v2.8h-12.88v8.24h10.88v2.84h-10.88v9.52h13.28v2.84h-16.64zM328.664 40.11l7.4-10.08-6.84-9.36h3.64l3.08 4.28q.52.8 1.08 1.64.6.84 1.2 1.64h.16q.56-.8 1.12-1.68.56-.88 1.08-1.68l2.92-4.2h3.48l-6.92 9.64 7.44 9.8h-3.6l-3.4-4.48q-.6-.84-1.28-1.76-.64-.92-1.28-1.76h-.16l-1.2 1.76q-.6.84-1.2 1.76l-3.2 4.48h-3.52zM365.849 40.59q-2.12 0-3.56-.56-1.44-.6-2.32-1.64-.88-1.08-1.28-2.56-.36-1.48-.36-3.28v-9.2h-5.48v-2.48l5.6-.2.44-6.24h2.72v6.24h9.56v2.68h-9.56v9.24q0 1.32.24 2.32.24.96.8 1.64.56.68 1.52 1.04.96.32 2.36.32t2.52-.24q1.12-.24 2.16-.64l.72 2.4q-1.32.48-2.8.8-1.44.36-3.28.36zM379.913 40.11V20.67h2.72l.28 4.6h.12q1.52-2.36 3.72-3.72 2.24-1.36 4.96-1.36 1.08 0 2 .2.92.16 1.84.6l-.76 2.84q-1.04-.36-1.76-.52-.68-.16-1.84-.16-2.2 0-4.24 1.28-2 1.24-3.76 4.28v11.4h-3.28zM407.897 40.59q-1.36 0-2.56-.4-1.2-.36-2.12-1.04-.88-.72-1.4-1.72-.52-1.04-.52-2.36 0-1.64.76-2.84.8-1.24 2.48-2.12 1.72-.88 4.4-1.44 2.68-.56 6.44-.88-.04-1-.32-1.88-.28-.88-.88-1.52-.6-.68-1.6-1.08-.96-.4-2.36-.4-1.92 0-3.68.76-1.76.72-3.12 1.56l-1.28-2.24q.72-.48 1.68-.96 1-.52 2.08-.92 1.12-.4 2.36-.64 1.24-.28 2.52-.28 4 0 5.92 2.2 1.96 2.16 1.96 5.8v11.92h-2.68l-.28-2.64h-.12q-1.64 1.28-3.64 2.2-1.96.92-4.04.92zm.88-2.64q1.68 0 3.28-.72 1.64-.76 3.32-2.16v-5.12q-3.12.24-5.24.68-2.08.44-3.36 1.08-1.24.6-1.76 1.4-.52.76-.52 1.72 0 .84.36 1.44.36.56.92.96.6.36 1.36.56.8.16 1.64.16z" fill="#dbe3de"/><path d="M454.036 1.63v4.72h-4.56V1.63h4.56zm.44-.88h-5.44q-.44 0-.44.44v5.6q0 .48.44.48h5.44q.44 0 .44-.48v-5.6q0-.44-.44-.44zm-.44.88v4.72h-4.56V1.63h4.56zm.44-.88h-5.44q-.44 0-.44.44v5.6q0 .48.44.48h5.44q.44 0 .44-.48v-5.6q0-.44-.44-.44zm-.44.88v4.72h-4.56V1.63h4.56zm.44-.88h-5.44q-.44 0-.44.44v5.6q0 .48.44.48h5.44q.44 0 .44-.48v-5.6q0-.44-.44-.44zm7.88.68v5.12h-4.92V1.43h4.92zm.24-.48h-5.4q-.24 0-.24.24v5.6q0 .24.24.24h5.4q.28 0 .28-.24v-5.6q0-.24-.28-.24zm-.24.48v5.12h-4.92V1.43h4.92zm.24-.48h-5.4q-.24 0-.24.24v5.6q0 .24.24.24h5.4q.28 0 .28-.24v-5.6q0-.24-.28-.24zm-.24.48v5.12h-4.92V1.43h4.92zm.24-.48h-5.4q-.24 0-.24.24v5.6q0 .24.24.24h5.4q.28 0 .28-.24v-5.6q0-.24-.28-.24zm7.92.24h-5.4v5.6h5.4v-5.6zm0 0h-5.4v5.6h5.4v-5.6zm0 0h-5.4v5.6h5.4v-5.6zm8.28 0h-5.44v5.6h5.44v-5.6zm0 0h-5.44v5.6h5.44v-5.6zm0 0h-5.44v5.6h5.44v-5.6zm-32.52 15.76v4.4h-4.24v-4.4h4.24zm.56-1.28h-5.4q-.24 0-.44.24-.16.2-.16.4v5.6q0 .28.2.48.2.16.4.16h5.4q.24 0 .4-.2.2-.2.2-.44v-5.6q0-.24-.2-.44t-.4-.2zm-.56 29.72v4.4h-4.24v-4.4h4.24zm.56-1.2h-5.4q-.24 0-.44.16-.16.2-.16.44v5.64q0 .24.2.4.2.16.4.16h5.4q.24 0 .4-.2.2-.16.2-.36v-5.64q0-.28-.2-.44-.2-.16-.4-.16zm7.28-35v5.16h-4.92V9.19h4.92zm.24-.48h-5.44q-.24 0-.24.24v5.64q0 .28.24.28h5.44q.24 0 .24-.28V8.95q0-.24-.24-.24zm-.72 22.4v4.12h-3.96v-4.12h3.96zm.72-1.52h-5.44q-.32 0-.52.24t-.2.52v5.64q0 .36.2.56.24.2.52.2h5.44q.32 0 .52-.2.2-.24.2-.56v-5.64q0-.32-.24-.52-.2-.24-.48-.24zm8.24-20.64h-5.4v5.64h5.4V8.95zm-.24 7.6v5.12h-4.92v-5.12h4.92zm.24-.48h-5.4q-.24 0-.24.24v5.6q0 .28.24.28h5.4q.28 0 .28-.28v-5.6q0-.24-.28-.24zm0 7.2h-5.4v5.6h5.4v-5.6zm-.48 14.72v4.64h-4.44v-4.64h4.44zm.48-1.04h-5.4q-.2 0-.36.2-.12.2-.12.36v5.6q0 .2.16.36.16.16.32.16h5.4q.2 0 .36-.2.16-.16.16-.32v-5.6q0-.2-.2-.36-.16-.2-.32-.2zm7.92-28h-5.4v5.64h5.4V8.95zm0 7.36h-5.4v5.6h5.4v-5.6zm0 14.04h-5.4v5.64h5.4v-5.64zm0 7.16h-5.4v5.6h5.4v-5.6zm0 7.28h-5.4v5.64h5.4v-5.64zm8.28-35.84h-5.44v5.64h5.44V8.95zm0 7.36h-5.44v5.6h5.44v-5.6zm0 6.96h-5.44v5.6h5.44v-5.6zm0 7.08h-5.44v5.64h5.44v-5.64zm0 7.16h-5.44v5.6h5.44v-5.6zm0 7.28h-5.44v5.64h5.44v-5.64z" fill="#59f"/><path d="M509.8 40.59q-2.88 0-5.32-1.04-2.4-1.04-4.2-2.84l2-2.32q1.48 1.48 3.44 2.4 1.96.88 4.24.88 2.72 0 4.2-1.16 1.52-1.16 1.52-3 0-1.04-.36-1.76t-1-1.24q-.64-.52-1.52-.92-.84-.4-1.84-.84l-3.76-1.64q-1-.4-2-.96-1-.56-1.84-1.36-.8-.8-1.32-1.88-.52-1.12-.52-2.56 0-1.48.64-2.76.64-1.28 1.76-2.2 1.16-.96 2.72-1.48 1.6-.52 3.48-.52 2.48 0 4.56.92 2.08.88 3.52 2.32l-1.76 2.16q-1.28-1.16-2.84-1.8-1.56-.68-3.6-.68-2.28 0-3.68 1.04-1.4 1-1.4 2.8 0 .96.4 1.64.44.64 1.08 1.16.68.48 1.52.84l1.68.72 3.68 1.6q1.2.48 2.24 1.12 1.08.6 1.84 1.44.8.8 1.24 1.92.48 1.08.48 2.52 0 1.56-.64 2.92-.64 1.36-1.84 2.4-1.2 1-2.92 1.6-1.72.56-3.88.56zM526.824 48.47q-1.44 0-2.56-.4l.68-2.6q.4.12.84.2.48.08.92.08 2.04 0 3.32-1.2 1.28-1.16 2-2.96l.6-1.44-9.08-19.48h3.32l4.76 10.76q.56 1.28 1.16 2.76.64 1.48 1.24 2.88h.16q.52-1.4 1.04-2.84.56-1.48 1.04-2.8l4.24-10.76h3.12l-8.56 21.04q-.56 1.44-1.28 2.68-.72 1.24-1.72 2.12-1 .92-2.32 1.44-1.28.52-2.92.52zM547.888 40.11V20.67h2.64l.28 2.56h.08q.76-1.36 1.76-2.2 1-.84 2.68-.84 2.84 0 3.68 3.36.84-1.56 1.84-2.44 1.04-.92 2.72-.92 2.04 0 3.16 1.56 1.16 1.52 1.16 4.44v13.92h-3.28V26.43q0-3.4-2.08-3.4-1.04 0-1.68.76-.64.72-1.44 2.24v14.08h-3.04V26.43q0-1.68-.48-2.52-.44-.88-1.52-.88-1.04 0-1.76.76-.72.72-1.44 2.24v14.08h-3.28zM582.352 40.59q-1.4 0-3.04-.68-1.6-.72-3-1.96h-.12l-.28 2.16h-2.64V11.63h3.28v7.76l-.12 3.76h.12q1.32-1.36 3.04-2.16 1.76-.8 3.48-.8 1.96 0 3.48.72 1.52.68 2.52 2 1.04 1.28 1.56 3.12.52 1.8.52 4.04 0 2.48-.72 4.44-.72 1.96-1.96 3.32-1.2 1.36-2.8 2.08-1.6.68-3.32.68zm-.52-2.76q1.28 0 2.36-.52 1.08-.56 1.88-1.52.8-1 1.24-2.44.44-1.44.44-3.24 0-1.6-.32-2.92-.32-1.32-1-2.24-.64-.96-1.68-1.48t-2.48-.52q-1.28 0-2.76.72-1.44.68-2.96 2.2v9.68q1.4 1.24 2.8 1.76 1.44.52 2.48.52zM605.537 40.59q-1.92 0-3.68-.68-1.72-.68-3.04-1.96-1.32-1.32-2.12-3.2-.76-1.92-.76-4.32 0-2.44.76-4.32.8-1.92 2.12-3.24 1.32-1.32 3.04-2 1.76-.68 3.68-.68 1.92 0 3.64.68 1.76.68 3.08 2 1.32 1.32 2.08 3.24.8 1.88.8 4.32 0 2.4-.8 4.32-.76 1.88-2.08 3.2-1.32 1.28-3.08 1.96-1.72.68-3.64.68zm0-2.72q1.4 0 2.52-.52 1.16-.56 1.96-1.52.84-1 1.28-2.36.44-1.36.44-3.04t-.44-3.04q-.44-1.4-1.28-2.4-.8-1-1.96-1.52-1.12-.56-2.52-.56t-2.56.56q-1.12.52-1.96 1.52-.8 1-1.24 2.4-.44 1.36-.44 3.04t.44 3.04q.44 1.36 1.24 2.36.84.96 1.96 1.52 1.16.52 2.56.52zM633.801 40.59q-3.12 0-4.76-1.76-1.64-1.76-1.64-5.24V14.31h-6.64v-2.68h9.92v22.2q0 2.16 1.04 3.12 1.04.92 2.8.92 1.72 0 3.64-.88l.84 2.44q-1.36.56-2.48.84-1.12.32-2.72.32zM653.906 40.59q-2.88 0-5.32-.88-2.44-.92-4.24-2.16l1.52-2.16q1.68 1.2 3.68 1.92 2.04.72 4.76.72 2.48 0 3.68-.88 1.24-.92 1.24-2.16 0-.56-.2-1.04t-.88-.92q-.64-.44-1.84-.84-1.2-.4-3.16-.8-3.8-.8-5.72-2.12-1.88-1.36-1.88-3.56 0-1.16.52-2.16.52-1.04 1.52-1.76 1.04-.76 2.52-1.16 1.52-.44 3.52-.44 2.24 0 4.32.76 2.08.72 3.52 1.72l-1.6 2.12q-1.36-.92-3-1.48-1.64-.56-3.52-.56-2.48 0-3.48.84t-1 1.96q0 1.28 1.32 1.96 1.32.64 4.32 1.28 2.44.52 4 1.12 1.56.56 2.44 1.28.92.72 1.24 1.6.36.88.36 2 0 1.2-.56 2.24-.56 1.04-1.68 1.84-1.08.8-2.72 1.24-1.6.48-3.68.48z" fill="#dbe3de"/><path d="M683.57.23v51.28L733.45.23h-49.88z" fill="#59f"/></g></svg>